<svg width="16" height="16" viewBox="0 0 16 16" fill="none" xmlns="http://www.w3.org/2000/svg">
<path d="M1.63599 10.707C1.82351 10.8944 2.07782 10.9998 2.34299 10.9998C2.60815 10.9998 2.86246 10.8944 3.04999 10.707L7.99999 5.75697L12.95 10.707C13.1386 10.8891 13.3912 10.9899 13.6534 10.9876C13.9156 10.9854 14.1664 10.8802 14.3518 10.6948C14.5372 10.5094 14.6424 10.2586 14.6447 9.99637C14.6469 9.73417 14.5461 9.48157 14.364 9.29297L8.70699 3.63597C8.51946 3.4485 8.26515 3.34318 7.99999 3.34318C7.73482 3.34318 7.48052 3.4485 7.29299 3.63597L1.63599 9.29297C1.44852 9.4805 1.3432 9.73481 1.3432 9.99997C1.3432 10.2651 1.44852 10.5194 1.63599 10.707V10.707Z" fill="#256799"/>
</svg>
