<svg width="24" height="24" viewBox="0 0 24 24" fill="none" xmlns="http://www.w3.org/2000/svg">
<path d="M4.5 3.75V22.5H16.5V3.75C16.5 3.15326 16.2629 2.58097 15.841 2.15901C15.419 1.73705 14.8467 1.5 14.25 1.5H6.75C6.15326 1.5 5.58097 1.73705 5.15901 2.15901C4.73705 2.58097 4.5 3.15326 4.5 3.75ZM18 20.25V22.5H18.75C18.9489 22.5 19.1397 22.579 19.2803 22.7197C19.421 22.8603 19.5 23.0511 19.5 23.25C19.5 23.4489 19.421 23.6397 19.2803 23.7803C19.1397 23.921 18.9489 24 18.75 24H2.25C2.05109 24 1.86032 23.921 1.71967 23.7803C1.57902 23.6397 1.5 23.4489 1.5 23.25C1.5 23.0511 1.57902 22.8603 1.71967 22.7197C1.86032 22.579 2.05109 22.5 2.25 22.5H3V3.75C3 2.75544 3.39509 1.80161 4.09835 1.09835C4.80161 0.395088 5.75544 0 6.75 0H14.25C15.2446 0 16.1984 0.395088 16.9017 1.09835C17.6049 1.80161 18 2.75544 18 3.75V17.25C18 17.8467 18.2371 18.419 18.659 18.841C19.081 19.2629 19.6533 19.5 20.25 19.5C20.8467 19.5 21.419 19.2629 21.841 18.841C22.2629 18.419 22.5 17.8467 22.5 17.25V10.7505C22.5 10.2637 22.3421 9.78997 22.05 9.4005L20.4 7.2C20.2807 7.04087 20.2294 6.84085 20.2575 6.64393C20.2857 6.44702 20.3909 6.26935 20.55 6.15C20.7091 6.03065 20.9092 5.97941 21.1061 6.00754C21.303 6.03567 21.4807 6.14087 21.6 6.3L23.25 8.5005C23.7375 9.1485 24 9.939 24 10.7505V17.25C24 17.9464 23.8061 18.6291 23.4399 19.2215C23.0738 19.8139 22.5499 20.2927 21.9271 20.6041C21.3042 20.9156 20.6068 21.0474 19.9132 20.9848C19.2196 20.9223 18.5571 20.6679 18 20.25ZM6 3.75V9.75C6 9.94891 6.07902 10.1397 6.21967 10.2803C6.36032 10.421 6.55109 10.5 6.75 10.5H14.25C14.4489 10.5 14.6397 10.421 14.7803 10.2803C14.921 10.1397 15 9.94891 15 9.75V3.75C15 3.55109 14.921 3.36032 14.7803 3.21967C14.6397 3.07902 14.4489 3 14.25 3H6.75C6.55109 3 6.36032 3.07902 6.21967 3.21967C6.07902 3.36032 6 3.55109 6 3.75ZM7.5 4.5H13.5V9H7.5V4.5Z" fill="#DB5C4C"/>
</svg>
