<svg width="24" height="24" viewBox="0 0 24 24" fill="none" xmlns="http://www.w3.org/2000/svg">
<path d="M3.83333 7.66667C5.122 7.66667 6.16667 6.622 6.16667 5.33333C6.16667 4.04467 5.122 3 3.83333 3C2.54467 3 1.5 4.04467 1.5 5.33333C1.5 6.622 2.54467 7.66667 3.83333 7.66667Z" stroke="#DB5C4C" stroke-width="1.5" stroke-linecap="round" stroke-linejoin="round"/>
<path d="M11.9998 7.66667C13.2885 7.66667 14.3332 6.622 14.3332 5.33333C14.3332 4.04467 13.2885 3 11.9998 3C10.7112 3 9.6665 4.04467 9.6665 5.33333C9.6665 6.622 10.7112 7.66667 11.9998 7.66667Z" stroke="#DB5C4C" stroke-width="1.5" stroke-linecap="round" stroke-linejoin="round"/>
<path d="M20.1668 7.66667C21.4555 7.66667 22.5002 6.622 22.5002 5.33333C22.5002 4.04467 21.4555 3 20.1668 3C18.8782 3 17.8335 4.04467 17.8335 5.33333C17.8335 6.622 18.8782 7.66667 20.1668 7.66667Z" stroke="#DB5C4C" stroke-width="1.5" stroke-linecap="round" stroke-linejoin="round"/>
<path d="M3.83333 21.6667C5.122 21.6667 6.16667 20.622 6.16667 19.3333C6.16667 18.0447 5.122 17 3.83333 17C2.54467 17 1.5 18.0447 1.5 19.3333C1.5 20.622 2.54467 21.6667 3.83333 21.6667Z" stroke="#DB5C4C" stroke-width="1.5" stroke-linecap="round" stroke-linejoin="round"/>
<path d="M11.9998 21.6667C13.2885 21.6667 14.3332 20.622 14.3332 19.3333C14.3332 18.0447 13.2885 17 11.9998 17C10.7112 17 9.6665 18.0447 9.6665 19.3333C9.6665 20.622 10.7112 21.6667 11.9998 21.6667Z" stroke="#DB5C4C" stroke-width="1.5" stroke-linecap="round" stroke-linejoin="round"/>
<path d="M20.1668 7.66655V9.99988C20.1668 10.6187 19.921 11.2122 19.4834 11.6498C19.0458 12.0874 18.4523 12.3332 17.8335 12.3332H3.8335M3.8335 7.66655V16.9999V7.66655ZM12.0002 7.66655V16.9999V7.66655Z" stroke="#DB5C4C" stroke-width="1.5" stroke-linecap="round" stroke-linejoin="round"/>
</svg>
