<svg width="175" height="26" viewBox="0 0 175 26" fill="none" xmlns="http://www.w3.org/2000/svg">
<path d="M82.3359 10.3131L72.2913 6.70079L68.0926 1.42595C67.7275 0.979326 67.2676 0.619636 66.7463 0.372991C66.225 0.126346 65.6553 -0.00106465 65.0787 6.70079e-06H54.6911C54.0558 -0.000206719 53.4301 0.155086 52.8685 0.452343C52.3069 0.7496 51.8266 1.1798 51.4693 1.70543L47.9461 6.88277C47.2123 7.96027 46.8203 9.23411 46.8211 10.538V20.7978C46.8211 21.1425 46.958 21.4732 47.2016 21.7169C47.4452 21.9607 47.7757 22.0977 48.1202 22.0977H50.9029C51.1855 23.2132 51.8318 24.2027 52.7395 24.9095C53.6473 25.6163 54.7646 26 55.9148 26C57.065 26 58.1824 25.6163 59.0901 24.9095C59.9979 24.2027 60.6442 23.2132 60.9268 22.0977H69.0903C69.3729 23.2132 70.0192 24.2027 70.9269 24.9095C71.8347 25.6163 72.952 26 74.1022 26C75.2524 26 76.3698 25.6163 77.2775 24.9095C78.1853 24.2027 78.8316 23.2132 79.1142 22.0977H81.8968C82.2414 22.0977 82.5718 21.9607 82.8154 21.7169C83.0591 21.4732 83.1959 21.1425 83.1959 20.7978V11.5363C83.1959 11.2686 83.1133 11.0075 82.9593 10.7885C82.8054 10.5696 82.5877 10.4036 82.3359 10.3131ZM55.9148 23.3975C55.4009 23.3975 54.8986 23.245 54.4713 22.9594C54.0441 22.6737 53.7111 22.2677 53.5144 21.7927C53.3177 21.3176 53.2663 20.7949 53.3665 20.2906C53.4668 19.7863 53.7143 19.3231 54.0776 18.9595C54.441 18.5959 54.9039 18.3483 55.4079 18.248C55.9119 18.1477 56.4344 18.1992 56.9091 18.396C57.3839 18.5927 57.7897 18.9259 58.0751 19.3535C58.3606 19.781 58.513 20.2836 58.513 20.7978C58.512 21.487 58.2379 22.1476 57.7509 22.6349C57.2639 23.1223 56.6036 23.3965 55.9148 23.3975ZM74.1022 23.3975C73.5884 23.3975 73.086 23.245 72.6587 22.9594C72.2315 22.6737 71.8984 22.2677 71.7018 21.7927C71.5051 21.3176 71.4537 20.7949 71.5539 20.2906C71.6542 19.7863 71.9017 19.3231 72.265 18.9595C72.6284 18.5959 73.0913 18.3483 73.5953 18.248C74.0993 18.1477 74.6218 18.1992 75.0965 18.396C75.5713 18.5927 75.9771 18.9259 76.2626 19.3535C76.548 19.781 76.7004 20.2836 76.7004 20.7978C76.6997 21.4871 76.4258 22.1479 75.9387 22.6353C75.4516 23.1227 74.7911 23.3968 74.1022 23.3975ZM80.5977 19.4979H79.1142C78.8316 18.3823 78.1853 17.3929 77.2775 16.6861C76.3698 15.9793 75.2524 15.5956 74.1022 15.5956C72.952 15.5956 71.8347 15.9793 70.9269 16.6861C70.0192 17.3929 69.3729 18.3823 69.0903 19.4979H60.9268C60.6442 18.3823 59.9979 17.3929 59.0901 16.6861C58.1824 15.9793 57.065 15.5956 55.9148 15.5956C54.7646 15.5956 53.6473 15.9793 52.7395 16.6861C51.8318 17.3929 51.1855 18.3823 50.9029 19.4979H49.4193V10.538C49.4192 9.75531 49.6546 8.99073 50.0949 8.34382L53.6167 3.16907C53.7358 2.99369 53.896 2.85013 54.0832 2.75089C54.2705 2.65165 54.4792 2.59976 54.6911 2.59973H65.0787C65.2677 2.59899 65.4546 2.63981 65.6261 2.71933C65.7976 2.79885 65.9496 2.91511 66.0712 3.05988L70.4881 8.60899C70.6383 8.79766 70.8381 8.94078 71.0649 9.02234L80.5977 12.4501V19.4979Z" fill="#DB5C4C"/>
<path d="M14.9886 9.52278H11.8829C11.7943 9.01317 11.631 8.56173 11.393 8.16845C11.1549 7.76963 10.8587 7.43174 10.5044 7.15478C10.1501 6.87782 9.74602 6.6701 9.29207 6.53162C8.84366 6.3876 8.35927 6.31559 7.83889 6.31559C6.91439 6.31559 6.09507 6.54824 5.38093 7.01353C4.6668 7.47328 4.10767 8.14906 3.70354 9.04087C3.29942 9.92714 3.09736 11.01 3.09736 12.2896C3.09736 13.5913 3.29942 14.6881 3.70354 15.5799C4.1132 16.4661 4.67233 17.1364 5.38093 17.5906C6.09507 18.0393 6.91162 18.2636 7.83058 18.2636C8.33989 18.2636 8.81598 18.1971 9.25886 18.0642C9.70727 17.9257 10.1086 17.7235 10.4629 17.4577C10.8228 17.1918 11.1245 16.865 11.368 16.4772C11.6172 16.0895 11.7888 15.6463 11.8829 15.1478L14.9886 15.1644C14.8723 15.9732 14.6204 16.732 14.2329 17.441C13.8509 18.1501 13.3499 18.776 12.7299 19.3188C12.1099 19.8561 11.3847 20.2771 10.5543 20.5818C9.72388 20.8809 8.80214 21.0304 7.78907 21.0304C6.29436 21.0304 4.9602 20.6842 3.78658 19.9918C2.61296 19.2994 1.68846 18.2996 1.01308 16.9924C0.337692 15.6851 0 14.1175 0 12.2896C0 10.4561 0.34046 8.88854 1.02138 7.58683C1.7023 6.27959 2.62957 5.27976 3.80319 4.58737C4.97681 3.89497 6.30543 3.54877 7.78907 3.54877C8.73571 3.54877 9.61592 3.68171 10.4297 3.94759C11.2435 4.21347 11.9687 4.60398 12.6053 5.11913C13.242 5.62873 13.7651 6.25466 14.1748 6.99691C14.59 7.73362 14.8612 8.57558 14.9886 9.52278Z" fill="black"/>
<path d="M21.3473 21.0554C20.539 21.0554 19.811 20.9113 19.1633 20.6233C18.5212 20.3297 18.0119 19.8977 17.6354 19.3271C17.2645 18.7566 17.0791 18.0531 17.0791 17.2167C17.0791 16.4966 17.2119 15.9011 17.4776 15.4303C17.7434 14.9595 18.106 14.5828 18.5655 14.3003C19.0249 14.0178 19.5426 13.8046 20.1183 13.6605C20.6996 13.511 21.3002 13.403 21.9202 13.3365C22.6676 13.259 23.2738 13.1897 23.7388 13.1288C24.2038 13.0623 24.5415 12.9626 24.7519 12.8297C24.9678 12.6912 25.0757 12.4779 25.0757 12.1899V12.14C25.0757 11.5141 24.8903 11.0294 24.5194 10.686C24.1485 10.3426 23.6142 10.1709 22.9167 10.1709C22.1804 10.1709 21.5964 10.3315 21.1646 10.6528C20.7383 10.974 20.4504 11.3535 20.301 11.7911L17.4943 11.3923C17.7157 10.6168 18.0811 9.96868 18.5904 9.448C19.0997 8.92178 19.7225 8.52849 20.4588 8.26815C21.195 8.00227 22.0088 7.86933 22.9001 7.86933C23.5146 7.86933 24.1263 7.94134 24.7353 8.08536C25.3442 8.22938 25.9006 8.46756 26.4044 8.79991C26.9081 9.12673 27.3122 9.57263 27.6167 10.1376C27.9267 10.7026 28.0817 11.4089 28.0817 12.2564V20.7978H25.192V19.0446H25.0923C24.9096 19.3991 24.6522 19.7315 24.3201 20.0417C23.9934 20.3463 23.581 20.5928 23.0828 20.7812C22.5901 20.964 22.0116 21.0554 21.3473 21.0554ZM22.1278 18.8452C22.7313 18.8452 23.2544 18.7261 23.6973 18.4879C24.1402 18.2442 24.4806 17.9229 24.7187 17.5241C24.9622 17.1253 25.084 16.6905 25.084 16.2196V14.7158C24.9899 14.7933 24.8294 14.8653 24.6024 14.9318C24.381 14.9983 24.1318 15.0564 23.8551 15.1063C23.5783 15.1561 23.3042 15.2004 23.033 15.2392C22.7617 15.278 22.5264 15.3112 22.3271 15.3389C21.8787 15.3998 21.4774 15.4996 21.1231 15.638C20.7688 15.7765 20.4892 15.9704 20.2844 16.2196C20.0795 16.4634 19.9771 16.7791 19.9771 17.1668C19.9771 17.7208 20.1792 18.139 20.5833 18.4215C20.9874 18.704 21.5023 18.8452 22.1278 18.8452Z" fill="black"/>
<path d="M31.1044 20.7978V8.03551H34.019V10.1626H34.1519C34.3844 9.42584 34.783 8.85808 35.3477 8.45925C35.9179 8.05489 36.5683 7.85271 37.2991 7.85271C37.4652 7.85271 37.6506 7.86102 37.8554 7.87764C38.0658 7.88872 38.2402 7.90811 38.3786 7.9358V10.7026C38.2513 10.6583 38.0492 10.6195 37.7724 10.5863C37.5011 10.5475 37.2382 10.5281 36.9835 10.5281C36.4355 10.5281 35.9428 10.6472 35.5054 10.8854C35.0736 11.1181 34.7332 11.4421 34.4841 11.8575C34.2349 12.273 34.1104 12.7521 34.1104 13.295V20.7978H31.1044Z" fill="black"/>
<path d="M101.91 8.45925C101.833 7.73362 101.506 7.16863 100.93 6.76426C100.36 6.3599 99.6183 6.15772 98.7048 6.15772C98.0627 6.15772 97.5119 6.25466 97.0524 6.44853C96.5929 6.6424 96.2414 6.90551 95.9978 7.23786C95.7542 7.57022 95.6296 7.94965 95.6241 8.37617C95.6241 8.73067 95.7044 9.0381 95.8649 9.29844C96.031 9.55878 96.2552 9.78035 96.5375 9.96314C96.8199 10.1404 97.1326 10.29 97.4759 10.4118C97.8191 10.5337 98.1651 10.6362 98.5139 10.7192L100.108 11.1181C100.75 11.2676 101.368 11.4698 101.96 11.7246C102.558 11.9794 103.092 12.3007 103.563 12.6884C104.039 13.0762 104.415 13.5442 104.692 14.0926C104.969 14.641 105.107 15.2835 105.107 16.0202C105.107 17.0173 104.853 17.8953 104.343 18.6541C103.834 19.4074 103.098 19.9974 102.134 20.4239C101.177 20.8449 100.017 21.0554 98.655 21.0554C97.3319 21.0554 96.1832 20.8504 95.2089 20.4405C94.2401 20.0306 93.4817 19.4324 92.9336 18.6458C92.3911 17.8592 92.0977 16.901 92.0534 15.771H95.0844C95.1286 16.3637 95.3113 16.8567 95.6324 17.2499C95.9535 17.6432 96.3715 17.9368 96.8863 18.1307C97.4067 18.3245 97.988 18.4215 98.6301 18.4215C99.3 18.4215 99.8868 18.3218 100.391 18.1224C100.9 17.9174 101.298 17.6349 101.586 17.2749C101.874 16.9093 102.021 16.4828 102.026 15.9953C102.021 15.5522 101.891 15.1866 101.636 14.8986C101.381 14.605 101.024 14.3613 100.565 14.1674C100.111 13.968 99.5795 13.7907 98.9706 13.6356L97.0358 13.1371C95.6352 12.777 94.528 12.2314 93.7142 11.5003C92.906 10.7636 92.5018 9.78589 92.5018 8.56727C92.5018 7.56468 92.7731 6.68672 93.3156 5.93339C93.8637 5.18006 94.6083 4.59567 95.5494 4.18024C96.4905 3.75926 97.5561 3.54877 98.7464 3.54877C99.9532 3.54877 101.011 3.75926 101.918 4.18024C102.832 4.59567 103.549 5.17452 104.069 5.91677C104.59 6.65348 104.858 7.50098 104.875 8.45925H101.91Z" fill="black"/>
<path d="M109.589 25.5836C109.18 25.5836 108.8 25.5504 108.452 25.4839C108.108 25.423 107.834 25.351 107.629 25.2679L108.327 22.9248C108.764 23.0522 109.155 23.1132 109.498 23.1076C109.841 23.1021 110.143 22.9941 110.403 22.7836C110.669 22.5786 110.893 22.2352 111.076 21.7533L111.333 21.0637L106.708 8.03551H109.896L112.836 17.6737H112.969L115.917 8.03551H119.114L114.007 22.3432C113.769 23.019 113.453 23.5978 113.06 24.0797C112.667 24.5672 112.186 24.9383 111.615 25.1931C111.051 25.4535 110.375 25.5836 109.589 25.5836Z" fill="black"/>
<path d="M131.275 11.4089L128.535 11.708C128.457 11.431 128.321 11.1707 128.128 10.927C127.939 10.6832 127.685 10.4866 127.364 10.337C127.043 10.1875 126.65 10.1127 126.185 10.1127C125.559 10.1127 125.033 10.2484 124.607 10.5198C124.186 10.7913 123.978 11.143 123.984 11.575C123.978 11.9462 124.114 12.2481 124.391 12.4807C124.673 12.7133 125.138 12.9044 125.786 13.054L127.962 13.5193C129.168 13.7796 130.065 14.1923 130.652 14.7573C131.244 15.3223 131.543 16.0618 131.549 16.9757C131.543 17.7789 131.308 18.4879 130.843 19.1028C130.384 19.7121 129.744 20.1885 128.925 20.5319C128.106 20.8753 127.164 21.047 126.102 21.047C124.54 21.047 123.284 20.7202 122.332 20.0666C121.379 19.4074 120.812 18.4907 120.629 17.3164L123.561 17.0339C123.693 17.61 123.976 18.0448 124.408 18.3384C124.839 18.632 125.401 18.7787 126.093 18.7787C126.807 18.7787 127.38 18.632 127.812 18.3384C128.249 18.0448 128.468 17.682 128.468 17.2499C128.468 16.8844 128.327 16.5825 128.045 16.3443C127.768 16.1061 127.336 15.9233 126.749 15.7959L124.574 15.3389C123.35 15.0841 122.445 14.6548 121.858 14.0511C121.271 13.4417 120.981 12.6718 120.986 11.7412C120.981 10.9547 121.194 10.2733 121.626 9.69726C122.063 9.11565 122.669 8.66697 123.444 8.35124C124.225 8.02997 125.124 7.86933 126.143 7.86933C127.638 7.86933 128.814 8.18783 129.672 8.82484C130.536 9.46185 131.07 10.3232 131.275 11.4089Z" fill="black"/>
<path d="M148.42 21.047C147.142 21.047 146.037 20.7812 145.107 20.2494C144.183 19.7121 143.471 18.9532 142.973 17.9728C142.475 16.9868 142.226 15.8264 142.226 14.4914C142.226 13.1786 142.475 12.0265 142.973 11.035C143.477 10.0379 144.18 9.26244 145.082 8.70852C145.985 8.14906 147.045 7.86933 148.263 7.86933C149.049 7.86933 149.79 7.99673 150.488 8.25153C151.191 8.5008 151.811 8.88854 152.348 9.41476C152.891 9.94099 153.317 10.6112 153.627 11.4255C153.937 12.2342 154.092 13.198 154.092 14.3169V15.2392L145.207 15.1644V13.2119H151.21C151.205 12.6358 151.08 12.1234 150.837 11.6747C150.593 11.2205 150.253 10.8633 149.815 10.6029C149.384 10.3426 148.88 10.2124 148.304 10.2124C147.69 10.2124 147.15 10.362 146.685 10.6611C146.22 10.9547 145.857 11.3424 145.597 11.8243C145.342 12.3007 145.212 12.6413 145.207 13.2119V15.1644C145.207 15.9067 145.342 16.5437 145.614 17.0755C145.885 17.6017 146.264 18.006 146.751 18.2885C147.238 18.5655 147.809 18.704 148.462 18.704C148.899 18.704 149.295 18.643 149.649 18.5212C150.004 18.3938 150.311 18.2082 150.571 17.9645C150.831 17.7208 151.028 17.4189 151.161 17.0588L153.967 17.3746C153.79 18.1168 153.453 18.7649 152.954 19.3188C152.462 19.8672 151.83 20.2937 151.061 20.5984C150.291 20.8975 149.411 21.047 148.42 21.047Z" fill="black"/>
<path d="M156.635 20.7978V8.03551H159.508V10.2041H159.658C159.923 9.47292 160.363 8.90239 160.978 8.49249C161.592 8.07705 162.326 7.86933 163.178 7.86933C164.042 7.86933 164.77 8.07982 165.362 8.5008C165.96 8.91624 166.381 9.484 166.625 10.2041H166.757C167.04 9.49508 167.516 8.93009 168.186 8.50911C168.861 8.08259 169.661 7.86933 170.586 7.86933C171.759 7.86933 172.717 8.24046 173.459 8.98271C174.201 9.72496 174.571 10.8079 174.571 12.2314V20.7978H171.557V12.6967C171.557 11.9046 171.347 11.3258 170.926 10.9602C170.505 10.5891 169.99 10.4035 169.381 10.4035C168.656 10.4035 168.089 10.6306 167.679 11.0848C167.275 11.5335 167.073 12.1179 167.073 12.838V20.7978H164.125V12.5721C164.125 11.9129 163.926 11.3867 163.527 10.9934C163.134 10.6001 162.619 10.4035 161.983 10.4035C161.551 10.4035 161.158 10.5143 160.804 10.7359C160.449 10.9519 160.167 11.2593 159.957 11.6581C159.746 12.0514 159.641 12.5112 159.641 13.0374V20.7978H156.635Z" fill="black"/>
<path fill-rule="evenodd" clip-rule="evenodd" d="M140.397 10.362V8.03551H137.881V4.97788H134.875V8.03551H133.064V10.362H134.875V17.4577C134.869 18.2553 135.041 18.92 135.389 19.4518C135.744 19.9835 136.223 20.3768 136.826 20.6316C137.429 20.8809 138.108 20.9944 138.86 20.9723C139.287 20.9612 139.647 20.9224 139.94 20.8559C140.239 20.7895 140.469 20.7285 140.629 20.6732L140.123 18.3218C140.04 18.3439 139.918 18.3689 139.757 18.3965C139.602 18.4242 139.431 18.4381 139.242 18.4381C138.993 18.4381 138.766 18.3993 138.562 18.3218C138.357 18.2442 138.191 18.1002 138.063 17.8897C137.942 17.6737 137.881 17.3635 137.881 16.9591V10.362H140.397Z" fill="black"/>
</svg>
