<svg width="24" height="24" viewBox="0 0 24 24" fill="none" xmlns="http://www.w3.org/2000/svg">
<path d="M11.1562 6.23475C9.80389 6.38809 8.52122 6.91605 7.45275 7.75912L8.3775 8.685C8.52654 8.84495 8.60768 9.0565 8.60382 9.27509C8.59997 9.49368 8.51141 9.70224 8.35682 9.85682C8.20224 10.0114 7.99368 10.1 7.77509 10.1038C7.5565 10.1077 7.34495 10.0265 7.185 9.8775L6.25575 8.94938C5.46598 9.94 4.95212 11.1218 4.76625 12.375H6.65625C6.88003 12.375 7.09464 12.4639 7.25287 12.6221C7.41111 12.7804 7.5 12.995 7.5 13.2188C7.5 13.4425 7.41111 13.6571 7.25287 13.8154C7.09464 13.9736 6.88003 14.0625 6.65625 14.0625H4.71563C4.89078 15.868 5.71597 17.5484 7.03763 18.7909C7.19703 18.9448 7.28946 19.1554 7.29493 19.3769C7.3004 19.5985 7.21849 19.8133 7.06688 19.9749C6.91527 20.1366 6.70615 20.2321 6.4847 20.2408C6.26324 20.2496 6.04725 20.1708 5.88338 20.0216C4.15088 18.3982 3 16.0042 3 13.4359C3 8.49487 7.03537 4.5 12 4.5C16.9646 4.5 21 8.49375 21 13.4359C20.9978 14.669 20.7447 15.8887 20.2562 17.0209C19.7676 18.1531 19.0538 19.174 18.1582 20.0216C17.9944 20.1708 17.7784 20.2496 17.5569 20.2408C17.3355 20.2321 17.1264 20.1366 16.9747 19.9749C16.8231 19.8133 16.7412 19.5985 16.7467 19.3769C16.7522 19.1554 16.8446 18.9448 17.004 18.7909C18.3165 17.5463 19.128 15.8644 19.2855 14.0625H17.3438C17.12 14.0625 16.9054 13.9736 16.7471 13.8154C16.5889 13.6571 16.5 13.4425 16.5 13.2188C16.5 12.995 16.5889 12.7804 16.7471 12.6221C16.9054 12.4639 17.12 12.375 17.3438 12.375H19.2337C18.7568 9.15075 16.1366 6.60938 12.8438 6.23475V7.59375C12.8438 7.81753 12.7549 8.03214 12.5966 8.19037C12.4384 8.34861 12.2238 8.4375 12 8.4375C11.7762 8.4375 11.5616 8.34861 11.4034 8.19037C11.2451 8.03214 11.1562 7.81753 11.1562 7.59375V6.23475ZM15.8801 8.78288C15.9824 8.70168 16.1096 8.65858 16.2402 8.66095C16.3707 8.66332 16.4963 8.71102 16.5956 8.79587C16.6948 8.88072 16.7614 8.99744 16.784 9.12602C16.8066 9.2546 16.7837 9.38704 16.7194 9.50063L16.5956 9.72112C16.1432 10.52 15.688 11.3172 15.2299 12.1129C14.8637 12.7496 14.4924 13.3833 14.1161 14.0141C13.9751 14.2514 13.8311 14.487 13.6841 14.7206C13.5716 14.8973 13.4614 15.0649 13.3804 15.1594C13.0898 15.4998 12.6758 15.7109 12.2296 15.7461C11.7834 15.7813 11.3414 15.6379 11.001 15.3472C10.6606 15.0566 10.4495 14.6427 10.4143 14.1965C10.379 13.7503 10.5225 13.3083 10.8131 12.9679C10.8941 12.8734 11.0415 12.7373 11.199 12.5989C11.3678 12.4493 11.5849 12.2659 11.829 12.06C12.3195 11.6505 12.9338 11.1487 13.5323 10.665C14.2461 10.0875 14.9624 9.51303 15.681 8.9415L15.8801 8.784V8.78288Z" fill="#DB5C4C"/>
</svg>
