<svg width="24" height="24" viewBox="0 0 24 24" fill="none" xmlns="http://www.w3.org/2000/svg">
<path d="M12.375 12.3281C14.006 12.3281 15.3281 11.006 15.3281 9.375C15.3281 7.74403 14.006 6.42188 12.375 6.42188C10.744 6.42188 9.42188 7.74403 9.42188 9.375C9.42188 11.006 10.744 12.3281 12.375 12.3281Z" stroke="#DB5C4C" stroke-width="1.5" stroke-linecap="round" stroke-linejoin="round"/>
<path d="M12.375 1.5C10.2864 1.5 8.28338 2.32969 6.80653 3.80653C5.32969 5.28338 4.5 7.28642 4.5 9.375C4.5 11.2374 4.89572 12.4561 5.97656 13.8047L12.375 21.1875L18.7734 13.8047C19.8543 12.4561 20.25 11.2374 20.25 9.375C20.25 7.28642 19.4203 5.28338 17.9435 3.80653C16.4666 2.32969 14.4636 1.5 12.375 1.5V1.5Z" stroke="#DB5C4C" stroke-width="1.5" stroke-linecap="round" stroke-linejoin="round"/>
</svg>
